<?xml version="1.0" encoding="iso-8859-1"?>
<!-- Generator: Adobe Illustrator 16.0.0, SVG Export Plug-In . SVG Version: 6.00 Build 0)  -->
<!DOCTYPE svg PUBLIC "-//W3C//DTD SVG 1.1//EN" "http://www.w3.org/Graphics/SVG/1.1/DTD/svg11.dtd">
<svg version="1.1" id="Capa_1" xmlns="http://www.w3.org/2000/svg" xmlns:xlink="http://www.w3.org/1999/xlink" x="0px" y="0px"
	 width="502.905px" height="502.906px" viewBox="0 0 502.905 502.906" style="enable-background:new 0 0 502.905 502.906;"
	 xml:space="preserve">
<g>
	<g>
		<path d="M258.811,8.806h40.541c-0.996,8.02-1.195,16.054-1.146,24.125c0.057,9.167,0.375,18.274,1.174,27.408
			c1.686,19.283,4.74,38.44,8.732,57.375c8.404,39.858,20.711,79.027,35.838,116.835c7.707,19.264,15.698,38.409,24.693,57.116
			c8.901,18.513,18.18,36.783,28.196,54.721c19.563,35.027,41.433,68.855,65.896,100.67c12.554,16.322,25.812,32.268,40.17,47.043
			H290.08l-1.701-11.889h-73.853l-1.701,11.889H0c12.268-12.625,23.729-26.117,34.607-39.949
			c12.246-15.572,23.846-31.613,34.89-48.059c22.704-33.807,43.122-69.303,60.733-106.025
			c17.884-37.289,33.792-75.502,46.432-114.903c12.174-37.955,21.764-76.876,26.057-116.567c1.137-10.528,1.88-21.075,1.959-31.666
			c0.069-9.411,0.037-18.768-1.123-28.123h40.539l0.148,11.889h14.418L258.811,8.806z M226.129,379.652
			c-1.697,17.1-3.456,34.191-5.284,51.277h61.215c-1.826-17.086-3.586-34.178-5.282-51.277H226.129z M234.49,277.092
			c-1.24,17.098-2.521,34.188-3.863,51.278h41.651c-1.343-17.09-2.623-34.182-3.862-51.278H234.49z M240.487,174.533
			c-0.853,17.096-1.757,34.188-2.708,51.279h27.348c-0.951-17.091-1.855-34.184-2.709-51.279H240.487z M243.915,71.973
			c-0.388,17.096-0.835,34.188-1.347,51.281h17.769c-0.511-17.093-0.958-34.185-1.347-51.281H243.915z"/>
	</g>
</g>
<g>
</g>
<g>
</g>
<g>
</g>
<g>
</g>
<g>
</g>
<g>
</g>
<g>
</g>
<g>
</g>
<g>
</g>
<g>
</g>
<g>
</g>
<g>
</g>
<g>
</g>
<g>
</g>
<g>
</g>
</svg>
